<svg viewBox="0 0 48 48" xml:space="preserve" xmlns="http://www.w3.org/2000/svg" enable-background="new 0 0 48 48"><path d="M41.7 8.2c-.4-.4-1-.4-1.4 0L23.9 24.5l-6.4-7.1c-.4-.4-1-.4-1.4-.1-.4.4-.4 1-.1 1.4.8.9 1.6 1.8 2.4 2.6 1.3 1.4 2.6 2.8 3.8 4.2.2.2.4.4.5.6.3.3.6.8 1.1.8.3 0 .5-.1.7-.3l17.2-17c.4-.4.4-1 0-1.4z" fill="#09de37" class="fill-000000"></path><path d="M23.9 42c-1.8 0-3.7-.3-5.5-.9-4.6-1.5-8.3-4.6-10.4-8.9C3.5 23.4 7 12.5 15.7 8c4.6-2.4 10-2.6 14.8-.7.9.3 1.7.8 2.5 1.2.5.3.6.9.3 1.4s-.9.6-1.4.3c-.7-.4-1.4-.8-2.2-1.1-4.3-1.7-9-1.5-13.1.6-7.8 4-10.9 13.7-6.9 21.5 1.9 3.8 5.2 6.6 9.3 7.9 4 1.3 8.3.9 12-1 7-3.6 10.3-12 7.7-19.5-.2-.5.1-1.1.6-1.3.5-.2 1.1.1 1.3.6 2.9 8.4-.8 17.9-8.7 21.9-2.5 1.5-5.2 2.2-8 2.2z" fill="#09de37" class="fill-000000"></path></svg>